<svg id="Bold" enable-background="new 0 0 24 24" height="512" viewBox="0 0 24 24" width="512" xmlns="http://www.w3.org/2000/svg"><path d="m8.727 13.5c-.266 0-.522-.106-.71-.296l-2.727-2.75c-.389-.392-.386-1.025.006-1.414.392-.388 1.026-.386 1.414.006l1.968 1.985 4.066-4.686c.361-.418.994-.462 1.411-.1s.462.994.1 1.411l-4.773 5.5c-.182.21-.444.334-.722.344-.011 0-.022 0-.033 0z"/><path d="m23 24c-.256 0-.512-.098-.707-.293l-6.98-6.98c-.391-.391-.391-1.023 0-1.414s1.023-.391 1.414 0l6.98 6.98c.391.391.391 1.023 0 1.414-.195.195-.451.293-.707.293z"/><path d="m9.75 19.5c-5.376 0-9.75-4.374-9.75-9.75s4.374-9.75 9.75-9.75 9.75 4.374 9.75 9.75-4.374 9.75-9.75 9.75zm0-17.5c-4.273 0-7.75 3.477-7.75 7.75s3.477 7.75 7.75 7.75 7.75-3.477 7.75-7.75-3.477-7.75-7.75-7.75z"/></svg>